<mxfile host="app.diagrams.net" modified="2023-08-04T22:03:02.888Z" agent="Mozilla/5.0 (Macintosh; Intel Mac OS X 10_15_7) AppleWebKit/537.36 (KHTML, like Gecko) Chrome/115.0.0.0 Safari/537.36" etag="OP76pGpo5tW71OVuk4qV" version="21.6.3" type="github">
  <diagram name="Page-1" id="13e1069c-82ec-6db2-03f1-153e76fe0fe0">
    <mxGraphModel dx="3359" dy="743" grid="1" gridSize="10" guides="1" tooltips="1" connect="1" arrows="1" fold="1" page="1" pageScale="1" pageWidth="1100" pageHeight="850" background="none" math="0" shadow="0">
      <root>
        <mxCell id="0" />
        <mxCell id="1" parent="0" />
        <mxCell id="7baba1c4bc27f4b0-2" value=":Jenkins Old" style="shape=umlLifeline;perimeter=lifelinePerimeter;whiteSpace=wrap;html=1;container=1;collapsible=0;recursiveResize=0;outlineConnect=0;rounded=1;shadow=0;comic=0;labelBackgroundColor=none;strokeWidth=1;fontFamily=Verdana;fontSize=12;align=center;fillColor=#FAE5C7;strokeColor=#0F8B8D;fontColor=#143642;" parent="1" vertex="1">
          <mxGeometry x="-700" y="185" width="100" height="580" as="geometry" />
        </mxCell>
        <mxCell id="7baba1c4bc27f4b0-10" value="" style="html=1;points=[];perimeter=orthogonalPerimeter;rounded=1;shadow=0;comic=0;labelBackgroundColor=none;strokeWidth=1;fontFamily=Verdana;fontSize=12;align=center;fillColor=#FAE5C7;strokeColor=#0F8B8D;fontColor=#143642;" parent="7baba1c4bc27f4b0-2" vertex="1">
          <mxGeometry x="45" y="120" width="10" height="50" as="geometry" />
        </mxCell>
        <mxCell id="6x2Dg8dyeEhJjuA4lggH-8" value="5. restore from the selected migration record" style="html=1;verticalAlign=bottom;endArrow=block;entryX=0.06;entryY=0.072;labelBackgroundColor=none;fontFamily=Verdana;fontSize=12;strokeColor=#A8201A;fontColor=default;entryDx=0;entryDy=0;entryPerimeter=0;" parent="7baba1c4bc27f4b0-2" edge="1">
          <mxGeometry relative="1" as="geometry">
            <mxPoint x="-79" y="365" as="sourcePoint" />
            <mxPoint x="345" y="366" as="targetPoint" />
            <mxPoint as="offset" />
          </mxGeometry>
        </mxCell>
        <mxCell id="7baba1c4bc27f4b0-3" value=":Jenkins &lt;br&gt;s3 backup" style="shape=umlLifeline;perimeter=lifelinePerimeter;whiteSpace=wrap;html=1;container=1;collapsible=0;recursiveResize=0;outlineConnect=0;rounded=1;shadow=0;comic=0;labelBackgroundColor=none;strokeWidth=1;fontFamily=Verdana;fontSize=12;align=center;fillColor=#FAE5C7;strokeColor=#0F8B8D;fontColor=#143642;" parent="1" vertex="1">
          <mxGeometry x="-540" y="185" width="100" height="580" as="geometry" />
        </mxCell>
        <mxCell id="7baba1c4bc27f4b0-13" value="" style="html=1;points=[];perimeter=orthogonalPerimeter;rounded=1;shadow=0;comic=0;labelBackgroundColor=none;strokeWidth=1;fontFamily=Verdana;fontSize=12;align=center;fillColor=#FAE5C7;strokeColor=#0F8B8D;fontColor=#143642;" parent="7baba1c4bc27f4b0-3" vertex="1">
          <mxGeometry x="45" y="158" width="10" height="70" as="geometry" />
        </mxCell>
        <mxCell id="7baba1c4bc27f4b0-4" value=":Jenkins &lt;br&gt;new" style="shape=umlLifeline;perimeter=lifelinePerimeter;whiteSpace=wrap;html=1;container=1;collapsible=0;recursiveResize=0;outlineConnect=0;rounded=1;shadow=0;comic=0;labelBackgroundColor=none;strokeWidth=1;fontFamily=Verdana;fontSize=12;align=center;fillColor=#FAE5C7;strokeColor=#0F8B8D;fontColor=#143642;" parent="1" vertex="1">
          <mxGeometry x="-400" y="185" width="100" height="580" as="geometry" />
        </mxCell>
        <mxCell id="davq9KQGrm66WCmQLP24-13" value="" style="html=1;points=[];perimeter=orthogonalPerimeter;rounded=1;shadow=0;comic=0;labelBackgroundColor=none;strokeWidth=1;fontFamily=Verdana;fontSize=12;align=center;fillColor=#FAE5C7;strokeColor=#0F8B8D;fontColor=#143642;" parent="7baba1c4bc27f4b0-4" vertex="1">
          <mxGeometry x="43" y="310" width="10" height="41" as="geometry" />
        </mxCell>
        <mxCell id="davq9KQGrm66WCmQLP24-19" value="" style="html=1;points=[];perimeter=orthogonalPerimeter;rounded=1;shadow=0;comic=0;labelBackgroundColor=none;strokeWidth=1;fontFamily=Verdana;fontSize=12;align=center;fillColor=#FAE5C7;strokeColor=#0F8B8D;fontColor=#143642;" parent="7baba1c4bc27f4b0-4" vertex="1">
          <mxGeometry x="43" y="365" width="10" height="47" as="geometry" />
        </mxCell>
        <mxCell id="8oz6WlwGEbHMc_Zp1zbU-4" value="migrate done" style="html=1;verticalAlign=bottom;endArrow=open;dashed=1;endSize=8;labelBackgroundColor=none;fontFamily=Verdana;fontSize=12;edgeStyle=elbowEdgeStyle;elbow=vertical;strokeColor=#A8201A;fontColor=default;" parent="7baba1c4bc27f4b0-4" target="7baba1c4bc27f4b0-8" edge="1">
          <mxGeometry relative="1" as="geometry">
            <mxPoint x="-240" y="505" as="targetPoint" />
            <Array as="points">
              <mxPoint x="5" y="505" />
              <mxPoint x="-35" y="561" />
            </Array>
            <mxPoint x="185" y="505" as="sourcePoint" />
          </mxGeometry>
        </mxCell>
        <mxCell id="7baba1c4bc27f4b0-5" value=":Jenkins new verify" style="shape=umlLifeline;perimeter=lifelinePerimeter;whiteSpace=wrap;html=1;container=1;collapsible=0;recursiveResize=0;outlineConnect=0;rounded=1;shadow=0;comic=0;labelBackgroundColor=none;strokeWidth=1;fontFamily=Verdana;fontSize=12;align=center;fillColor=#FAE5C7;strokeColor=#0F8B8D;fontColor=#143642;" parent="1" vertex="1">
          <mxGeometry x="-260" y="185" width="100" height="580" as="geometry" />
        </mxCell>
        <mxCell id="7baba1c4bc27f4b0-19" value="" style="html=1;points=[];perimeter=orthogonalPerimeter;rounded=1;shadow=0;comic=0;labelBackgroundColor=none;strokeWidth=1;fontFamily=Verdana;fontSize=12;align=center;fillColor=#FAE5C7;strokeColor=#0F8B8D;fontColor=#143642;" parent="7baba1c4bc27f4b0-5" vertex="1">
          <mxGeometry x="45" y="418" width="10" height="102" as="geometry" />
        </mxCell>
        <mxCell id="bYO_PEtmY-TjLPmkm5Tr-8" value="" style="html=1;points=[];perimeter=orthogonalPerimeter;rounded=1;shadow=0;comic=0;labelBackgroundColor=none;strokeColor=#0F8B8D;strokeWidth=1;fillColor=#FAE5C7;fontFamily=Verdana;fontSize=12;fontColor=#143642;align=center;" parent="7baba1c4bc27f4b0-5" vertex="1">
          <mxGeometry x="51" y="461" width="10" height="26" as="geometry" />
        </mxCell>
        <mxCell id="7baba1c4bc27f4b0-6" value=":DNS switch" style="shape=umlLifeline;perimeter=lifelinePerimeter;whiteSpace=wrap;html=1;container=1;collapsible=0;recursiveResize=0;outlineConnect=0;rounded=1;shadow=0;comic=0;labelBackgroundColor=none;strokeWidth=1;fontFamily=Verdana;fontSize=12;align=center;fillColor=#FAE5C7;strokeColor=#0F8B8D;fontColor=#143642;" parent="1" vertex="1">
          <mxGeometry x="-120" y="185" width="100" height="580" as="geometry" />
        </mxCell>
        <mxCell id="davq9KQGrm66WCmQLP24-25" value="" style="html=1;points=[];perimeter=orthogonalPerimeter;rounded=1;shadow=0;comic=0;labelBackgroundColor=none;strokeColor=#0F8B8D;strokeWidth=1;fillColor=#FAE5C7;fontFamily=Verdana;fontSize=12;fontColor=#143642;align=center;" parent="7baba1c4bc27f4b0-6" vertex="1">
          <mxGeometry x="45" y="418" width="10" height="26" as="geometry" />
        </mxCell>
        <mxCell id="7baba1c4bc27f4b0-8" value=":Frontend" style="shape=umlLifeline;perimeter=lifelinePerimeter;whiteSpace=wrap;html=1;container=1;collapsible=0;recursiveResize=0;outlineConnect=0;rounded=1;shadow=0;comic=0;labelBackgroundColor=none;strokeWidth=1;fontFamily=Verdana;fontSize=12;align=center;fillColor=#FAE5C7;strokeColor=#0F8B8D;fontColor=#143642;" parent="1" vertex="1">
          <mxGeometry x="-840" y="185" width="100" height="580" as="geometry" />
        </mxCell>
        <mxCell id="7baba1c4bc27f4b0-9" value="" style="html=1;points=[];perimeter=orthogonalPerimeter;rounded=1;shadow=0;comic=0;labelBackgroundColor=none;strokeWidth=1;fontFamily=Verdana;fontSize=12;align=center;fillColor=#FAE5C7;strokeColor=#0F8B8D;fontColor=#143642;" parent="7baba1c4bc27f4b0-8" vertex="1">
          <mxGeometry x="45" y="100" width="10" height="440" as="geometry" />
        </mxCell>
        <mxCell id="davq9KQGrm66WCmQLP24-11" value="" style="html=1;points=[];perimeter=orthogonalPerimeter;rounded=1;shadow=0;comic=0;labelBackgroundColor=none;strokeWidth=1;fontFamily=Verdana;fontSize=12;align=center;fillColor=#FAE5C7;strokeColor=#0F8B8D;fontColor=#143642;" parent="7baba1c4bc27f4b0-8" vertex="1">
          <mxGeometry x="50" y="252" width="10" height="70" as="geometry" />
        </mxCell>
        <mxCell id="davq9KQGrm66WCmQLP24-33" value="return" style="html=1;verticalAlign=bottom;endArrow=open;dashed=1;endSize=8;exitX=-0.24;exitY=0.722;labelBackgroundColor=none;fontFamily=Verdana;fontSize=12;strokeColor=#A8201A;fontColor=default;exitDx=0;exitDy=0;exitPerimeter=0;entryX=1.06;entryY=0.914;entryDx=0;entryDy=0;entryPerimeter=0;" parent="7baba1c4bc27f4b0-8" edge="1">
          <mxGeometry relative="1" as="geometry">
            <mxPoint x="-109.40000000000009" y="518.5799999999999" as="targetPoint" />
            <mxPoint x="44.999999999999915" y="519" as="sourcePoint" />
            <mxPoint as="offset" />
          </mxGeometry>
        </mxCell>
        <mxCell id="davq9KQGrm66WCmQLP24-39" value="" style="shape=image;html=1;verticalAlign=top;verticalLabelPosition=bottom;labelBackgroundColor=#ffffff;imageAspect=0;aspect=fixed;image=https://cdn0.iconfinder.com/data/icons/business-startup-10/50/8-128.png" parent="7baba1c4bc27f4b0-8" vertex="1">
          <mxGeometry x="55" y="62" width="38" height="38" as="geometry" />
        </mxCell>
        <mxCell id="bYO_PEtmY-TjLPmkm5Tr-2" value="" style="html=1;points=[];perimeter=orthogonalPerimeter;rounded=1;shadow=0;comic=0;labelBackgroundColor=none;strokeColor=#0F8B8D;strokeWidth=1;fillColor=#FAE5C7;fontFamily=Verdana;fontSize=12;fontColor=#143642;align=center;" parent="7baba1c4bc27f4b0-8" vertex="1">
          <mxGeometry x="50" y="425" width="10" height="45" as="geometry" />
        </mxCell>
        <mxCell id="6x2Dg8dyeEhJjuA4lggH-3" value="" style="html=1;points=[];perimeter=orthogonalPerimeter;rounded=1;shadow=0;comic=0;labelBackgroundColor=none;strokeWidth=1;fontFamily=Verdana;fontSize=12;align=center;fillColor=#FAE5C7;strokeColor=#0F8B8D;fontColor=#143642;" parent="7baba1c4bc27f4b0-8" vertex="1">
          <mxGeometry x="50" y="174" width="10" height="40" as="geometry" />
        </mxCell>
        <mxCell id="7baba1c4bc27f4b0-11" value="step 1: stop Jenkins service" style="html=1;verticalAlign=bottom;endArrow=block;entryX=0;entryY=0;labelBackgroundColor=none;fontFamily=Verdana;fontSize=12;edgeStyle=elbowEdgeStyle;elbow=vertical;strokeColor=#A8201A;fontColor=default;" parent="1" source="7baba1c4bc27f4b0-9" target="7baba1c4bc27f4b0-10" edge="1">
          <mxGeometry relative="1" as="geometry">
            <mxPoint x="-720" y="295" as="sourcePoint" />
            <mxPoint as="offset" />
          </mxGeometry>
        </mxCell>
        <mxCell id="davq9KQGrm66WCmQLP24-1" value="" style="shape=umlActor;verticalLabelPosition=bottom;verticalAlign=top;html=1;outlineConnect=0;strokeColor=#0F8B8D;fontColor=#143642;fillColor=#FAE5C7;" parent="1" vertex="1">
          <mxGeometry x="-970" y="180" width="30" height="60" as="geometry" />
        </mxCell>
        <mxCell id="davq9KQGrm66WCmQLP24-4" value="" style="endArrow=none;dashed=1;html=1;dashPattern=1 3;strokeWidth=2;rounded=0;strokeColor=#006EAF;fontColor=#143642;fillColor=#1ba1e2;" parent="1" source="davq9KQGrm66WCmQLP24-5" target="davq9KQGrm66WCmQLP24-1" edge="1">
          <mxGeometry width="50" height="50" relative="1" as="geometry">
            <mxPoint x="-955" y="765" as="sourcePoint" />
            <mxPoint x="-950" y="355" as="targetPoint" />
          </mxGeometry>
        </mxCell>
        <mxCell id="davq9KQGrm66WCmQLP24-6" value="" style="endArrow=none;dashed=1;html=1;dashPattern=1 3;strokeWidth=2;rounded=0;strokeColor=#006EAF;fontColor=#143642;fillColor=#1ba1e2;" parent="1" target="davq9KQGrm66WCmQLP24-5" edge="1">
          <mxGeometry width="50" height="50" relative="1" as="geometry">
            <mxPoint x="-955" y="765" as="sourcePoint" />
            <mxPoint x="-955" y="235" as="targetPoint" />
          </mxGeometry>
        </mxCell>
        <mxCell id="davq9KQGrm66WCmQLP24-8" style="edgeStyle=orthogonalEdgeStyle;rounded=0;orthogonalLoop=1;jettySize=auto;html=1;strokeColor=#A8201A;fontColor=#143642;fillColor=#FAE5C7;exitX=1.26;exitY=0.048;exitDx=0;exitDy=0;exitPerimeter=0;entryX=-0.04;entryY=0.005;entryDx=0;entryDy=0;entryPerimeter=0;" parent="1" source="davq9KQGrm66WCmQLP24-5" target="7baba1c4bc27f4b0-9" edge="1">
          <mxGeometry relative="1" as="geometry">
            <mxPoint x="-850" y="375" as="targetPoint" />
          </mxGeometry>
        </mxCell>
        <mxCell id="davq9KQGrm66WCmQLP24-5" value="" style="html=1;points=[];perimeter=orthogonalPerimeter;rounded=1;shadow=0;comic=0;labelBackgroundColor=none;strokeWidth=1;fontFamily=Verdana;fontSize=12;align=center;fillColor=#FAE5C7;strokeColor=#0F8B8D;fontColor=#143642;" parent="1" vertex="1">
          <mxGeometry x="-960" y="265" width="10" height="470" as="geometry" />
        </mxCell>
        <mxCell id="davq9KQGrm66WCmQLP24-9" value="select jenkins" style="text;html=1;align=center;verticalAlign=middle;resizable=0;points=[];autosize=1;strokeColor=none;fillColor=none;fontColor=#143642;" parent="1" vertex="1">
          <mxGeometry x="-940" y="263" width="100" height="30" as="geometry" />
        </mxCell>
        <mxCell id="davq9KQGrm66WCmQLP24-14" value="4. launch new Jenkins" style="html=1;verticalAlign=bottom;endArrow=block;entryX=0.06;entryY=0.072;labelBackgroundColor=none;fontFamily=Verdana;fontSize=12;strokeColor=#A8201A;fontColor=default;entryDx=0;entryDy=0;entryPerimeter=0;" parent="1" target="davq9KQGrm66WCmQLP24-13" edge="1">
          <mxGeometry x="0.0009" relative="1" as="geometry">
            <mxPoint x="-780" y="497" as="sourcePoint" />
            <mxPoint x="-350" y="485" as="targetPoint" />
            <mxPoint as="offset" />
          </mxGeometry>
        </mxCell>
        <mxCell id="bYO_PEtmY-TjLPmkm5Tr-3" style="edgeStyle=orthogonalEdgeStyle;rounded=0;orthogonalLoop=1;jettySize=auto;html=1;entryX=-0.017;entryY=0.505;entryDx=0;entryDy=0;entryPerimeter=0;strokeColor=#CC0000;" parent="1" edge="1">
          <mxGeometry relative="1" as="geometry">
            <mxPoint x="-780" y="613.5" as="sourcePoint" />
            <mxPoint x="-215.17000000000007" y="612.875" as="targetPoint" />
          </mxGeometry>
        </mxCell>
        <mxCell id="bYO_PEtmY-TjLPmkm5Tr-4" value="6. migration verify with engineering (async)" style="text;html=1;align=center;verticalAlign=middle;resizable=0;points=[];autosize=1;strokeColor=none;fillColor=none;" parent="1" vertex="1">
          <mxGeometry x="-665" y="590" width="250" height="30" as="geometry" />
        </mxCell>
        <mxCell id="bYO_PEtmY-TjLPmkm5Tr-5" style="edgeStyle=orthogonalEdgeStyle;rounded=0;orthogonalLoop=1;jettySize=auto;html=1;strokeColor=#CC0000;" parent="1" edge="1">
          <mxGeometry relative="1" as="geometry">
            <mxPoint x="-80" y="615" as="targetPoint" />
            <Array as="points">
              <mxPoint x="-100" y="615" />
              <mxPoint x="-100" y="615" />
            </Array>
            <mxPoint x="-205" y="615" as="sourcePoint" />
          </mxGeometry>
        </mxCell>
        <mxCell id="bYO_PEtmY-TjLPmkm5Tr-6" value=":Jenkins old terminate" style="shape=umlLifeline;perimeter=lifelinePerimeter;whiteSpace=wrap;html=1;container=1;collapsible=0;recursiveResize=0;outlineConnect=0;rounded=1;shadow=0;comic=0;labelBackgroundColor=none;strokeWidth=1;fontFamily=Verdana;fontSize=12;align=center;fillColor=#FAE5C7;strokeColor=#0F8B8D;fontColor=#143642;" parent="1" vertex="1">
          <mxGeometry x="20" y="185" width="100" height="580" as="geometry" />
        </mxCell>
        <mxCell id="bYO_PEtmY-TjLPmkm5Tr-7" value="" style="html=1;points=[];perimeter=orthogonalPerimeter;rounded=1;shadow=0;comic=0;labelBackgroundColor=none;strokeColor=#0F8B8D;strokeWidth=1;fillColor=#FAE5C7;fontFamily=Verdana;fontSize=12;fontColor=#143642;align=center;" parent="bYO_PEtmY-TjLPmkm5Tr-6" vertex="1">
          <mxGeometry x="45" y="461" width="10" height="26" as="geometry" />
        </mxCell>
        <mxCell id="bYO_PEtmY-TjLPmkm5Tr-9" style="edgeStyle=orthogonalEdgeStyle;rounded=0;orthogonalLoop=1;jettySize=auto;html=1;entryX=-0.317;entryY=0.497;entryDx=0;entryDy=0;entryPerimeter=0;strokeColor=#CC0000;" parent="1" edge="1">
          <mxGeometry relative="1" as="geometry">
            <mxPoint x="-199" y="665" as="sourcePoint" />
            <mxPoint x="61.82999999999993" y="664.922" as="targetPoint" />
          </mxGeometry>
        </mxCell>
        <mxCell id="bYO_PEtmY-TjLPmkm5Tr-10" value="8. terminate old Jenkins" style="text;html=1;align=center;verticalAlign=middle;resizable=0;points=[];autosize=1;strokeColor=none;fillColor=none;" parent="1" vertex="1">
          <mxGeometry x="-115" y="641" width="150" height="30" as="geometry" />
        </mxCell>
        <mxCell id="bYO_PEtmY-TjLPmkm5Tr-12" value="7. dns switch" style="text;html=1;align=center;verticalAlign=middle;resizable=0;points=[];autosize=1;strokeColor=none;fillColor=none;" parent="1" vertex="1">
          <mxGeometry x="-189" y="591" width="90" height="30" as="geometry" />
        </mxCell>
        <mxCell id="bYO_PEtmY-TjLPmkm5Tr-13" value="" style="html=1;verticalAlign=bottom;endArrow=block;labelBackgroundColor=none;fontFamily=Verdana;fontSize=12;elbow=vertical;edgeStyle=orthogonalEdgeStyle;curved=1;entryX=1;entryY=0.286;entryPerimeter=0;exitX=1.038;exitY=0.345;exitPerimeter=0;strokeColor=#A8201A;fontColor=default;" parent="1" edge="1">
          <mxGeometry x="-0.2339" y="21" relative="1" as="geometry">
            <mxPoint x="-209.99666666666644" y="623.8299999999999" as="sourcePoint" />
            <mxPoint x="-204.99666666666644" y="662.1633333333333" as="targetPoint" />
            <Array as="points">
              <mxPoint x="-155.32999999999993" y="623.8299999999999" />
              <mxPoint x="-155.32999999999993" y="661.8299999999999" />
            </Array>
            <mxPoint x="-6" y="-14" as="offset" />
          </mxGeometry>
        </mxCell>
        <mxCell id="6x2Dg8dyeEhJjuA4lggH-4" style="edgeStyle=orthogonalEdgeStyle;rounded=0;orthogonalLoop=1;jettySize=auto;html=1;entryX=1.337;entryY=0.455;entryDx=0;entryDy=0;entryPerimeter=0;" parent="1" source="7baba1c4bc27f4b0-13" target="6x2Dg8dyeEhJjuA4lggH-3" edge="1">
          <mxGeometry relative="1" as="geometry" />
        </mxCell>
        <mxCell id="6x2Dg8dyeEhJjuA4lggH-5" value="2: Pop-up backup records and select backup record" style="text;html=1;align=center;verticalAlign=middle;resizable=0;points=[];autosize=1;strokeColor=none;fillColor=none;" parent="1" vertex="1">
          <mxGeometry x="-779" y="351" width="300" height="30" as="geometry" />
        </mxCell>
        <mxCell id="6x2Dg8dyeEhJjuA4lggH-6" value="" style="html=1;verticalAlign=bottom;endArrow=block;labelBackgroundColor=none;fontFamily=Verdana;fontSize=12;elbow=vertical;edgeStyle=orthogonalEdgeStyle;curved=1;entryX=0.937;entryY=0.298;entryPerimeter=0;exitX=1.038;exitY=0.345;exitPerimeter=0;strokeColor=#A8201A;fontColor=default;entryDx=0;entryDy=0;" parent="1" target="7baba1c4bc27f4b0-9" edge="1">
          <mxGeometry x="-0.2339" y="21" relative="1" as="geometry">
            <mxPoint x="-769.9966666666664" y="381.0299999999999" as="sourcePoint" />
            <mxPoint x="-764.9966666666664" y="419.3633333333333" as="targetPoint" />
            <Array as="points">
              <mxPoint x="-715" y="381" />
              <mxPoint x="-715" y="419" />
              <mxPoint x="-786" y="419" />
            </Array>
            <mxPoint x="-6" y="-14" as="offset" />
          </mxGeometry>
        </mxCell>
        <mxCell id="6x2Dg8dyeEhJjuA4lggH-7" value="3. persistent into migration table" style="text;html=1;align=center;verticalAlign=middle;resizable=0;points=[];autosize=1;strokeColor=none;fillColor=none;" parent="1" vertex="1">
          <mxGeometry x="-805" y="398" width="190" height="30" as="geometry" />
        </mxCell>
      </root>
    </mxGraphModel>
  </diagram>
</mxfile>
